<svg width="52" height="64" viewBox="0 0 52 64" fill="none" xmlns="http://www.w3.org/2000/svg">
<path d="M23.108 47.6922C23.4259 47.6922 23.6836 47.4345 23.6836 47.1167C23.6836 46.7988 23.4259 46.5411 23.108 46.5411C22.7902 46.5411 22.5325 46.7988 22.5325 47.1167C22.5325 47.4345 22.7902 47.6922 23.108 47.6922Z" fill="#01FE7F"/>
<path d="M24.9627 47.6922C25.2805 47.6922 25.5382 47.4345 25.5382 47.1167C25.5382 46.7988 25.2805 46.5411 24.9627 46.5411C24.6448 46.5411 24.3871 46.7988 24.3871 47.1167C24.3871 47.4345 24.6448 47.6922 24.9627 47.6922Z" fill="#01FE7F"/>
<path d="M26.7532 47.6922C27.0711 47.6922 27.3288 47.4345 27.3288 47.1167C27.3288 46.7988 27.0711 46.5411 26.7532 46.5411C26.4354 46.5411 26.1777 46.7988 26.1777 47.1167C26.1777 47.4345 26.4354 47.6922 26.7532 47.6922Z" fill="#01FE7F"/>
<path d="M29.1195 47.1167C29.1195 47.4364 28.8637 47.6922 28.544 47.6922C28.2242 47.6922 27.9684 47.4364 27.9684 47.1167C27.9684 46.7969 28.2242 46.5411 28.544 46.5411C28.8637 46.6051 29.1195 46.7969 29.1195 47.1167Z" fill="#01FE7F"/>
<path d="M24.0673 49.4829C24.3851 49.4829 24.6428 49.2252 24.6428 48.9073C24.6428 48.5894 24.3851 48.3318 24.0673 48.3318C23.7494 48.3318 23.4917 48.5894 23.4917 48.9073C23.4917 49.2252 23.7494 49.4829 24.0673 49.4829Z" fill="#01FE7F"/>
<path d="M25.8579 49.4829C26.1758 49.4829 26.4335 49.2252 26.4335 48.9073C26.4335 48.5894 26.1758 48.3318 25.8579 48.3318C25.54 48.3318 25.2823 48.5894 25.2823 48.9073C25.2823 49.2252 25.54 49.4829 25.8579 49.4829Z" fill="#01FE7F"/>
<path d="M28.2241 48.9073C28.2241 49.2271 27.9683 49.4829 27.6486 49.4829C27.3288 49.4829 27.073 49.2271 27.073 48.9073C27.073 48.5876 27.3288 48.3318 27.6486 48.3318C27.9683 48.3318 28.2241 48.5876 28.2241 48.9073Z" fill="#01FE7F"/>
<path d="M24.9626 51.2735C25.2805 51.2735 25.5382 51.0159 25.5382 50.698C25.5382 50.3801 25.2805 50.1224 24.9626 50.1224C24.6447 50.1224 24.387 50.3801 24.387 50.698C24.387 51.0159 24.6447 51.2735 24.9626 51.2735Z" fill="#01FE7F"/>
<path d="M26.7532 51.2735C27.0711 51.2735 27.3288 51.0159 27.3288 50.698C27.3288 50.3801 27.0711 50.1224 26.7532 50.1224C26.4354 50.1224 26.1777 50.3801 26.1777 50.698C26.1777 51.0159 26.4354 51.2735 26.7532 51.2735Z" fill="#01FE7F"/>
<path d="M27.137 45.326C27.137 45.0062 27.3928 44.7504 27.7126 44.7504C28.0324 44.7504 28.2882 45.0062 28.2882 45.326C28.2882 45.6458 28.0324 45.9016 27.7126 45.9016C27.3928 45.9016 27.137 45.6458 27.137 45.326Z" fill="#01FE7F"/>
<path d="M25.2823 45.326C25.2823 45.0062 25.5382 44.7504 25.8579 44.7504C26.1777 44.7504 26.4335 45.0062 26.4335 45.326C26.4335 45.6458 26.1777 45.9016 25.8579 45.9016C25.5382 45.9016 25.2823 45.6458 25.2823 45.326Z" fill="#01FE7F"/>
<path d="M25.8579 42.4482C26.1758 42.4482 26.4335 42.1905 26.4335 41.8726C26.4335 41.5547 26.1758 41.297 25.8579 41.297C25.54 41.297 25.2823 41.5547 25.2823 41.8726C25.2823 42.1905 25.54 42.4482 25.8579 42.4482Z" fill="#01FE7F"/>
<path d="M23.4917 45.326C23.4917 45.0062 23.7475 44.7504 24.0673 44.7504C24.387 44.7504 24.6428 45.0062 24.6428 45.326C24.6428 45.6458 24.387 45.9016 24.0673 45.9016C23.7475 45.9016 23.4917 45.6458 23.4917 45.326Z" fill="#01FE7F"/>
<path d="M26.7532 44.1109C27.0711 44.1109 27.3288 43.8532 27.3288 43.5353C27.3288 43.2175 27.0711 42.9598 26.7532 42.9598C26.4354 42.9598 26.1777 43.2175 26.1777 43.5353C26.1777 43.8532 26.4354 44.1109 26.7532 44.1109Z" fill="#01FE7F"/>
<path d="M24.9626 44.1109C25.2805 44.1109 25.5382 43.8532 25.5382 43.5353C25.5382 43.2175 25.2805 42.9598 24.9626 42.9598C24.6447 42.9598 24.387 43.2175 24.387 43.5353C24.387 43.8532 24.6447 44.1109 24.9626 44.1109Z" fill="#01FE7F"/>
<path d="M4.43396 47.948C4.56186 48.2038 4.43396 48.5236 4.17815 48.6515C3.92234 48.7794 3.60258 48.6515 3.47468 48.3957C3.34677 48.1399 3.47468 47.8201 3.73048 47.6922C3.92234 47.5643 4.30605 47.6283 4.43396 47.948Z" fill="#01FE7F"/>
<path d="M6.1607 47.0527C6.28861 47.3085 6.1607 47.6283 5.9049 47.7562C5.64909 47.8841 5.32933 47.7562 5.20142 47.5004C5.07352 47.2446 5.20142 46.9248 5.45723 46.7969C5.64909 46.669 6.0328 46.7969 6.1607 47.0527Z" fill="#01FE7F"/>
<path d="M7.88745 46.2213C8.01535 46.4771 7.88745 46.7969 7.63164 46.9248C7.37583 47.0527 7.05607 46.9248 6.92817 46.669C6.80026 46.4132 6.92817 46.0934 7.18398 45.9655C7.37583 45.8376 7.69559 45.9655 7.88745 46.2213Z" fill="#01FE7F"/>
<path d="M9.61407 45.39C9.74198 45.6458 9.61407 45.9655 9.35826 46.0934C9.10246 46.2213 8.7827 46.0934 8.65479 45.8376C8.52689 45.5818 8.65479 45.2621 8.9106 45.1342C9.10246 45.0062 9.42222 45.1342 9.61407 45.39Z" fill="#01FE7F"/>
<path d="M5.13745 49.4189C5.26535 49.6747 5.13745 49.9945 4.88164 50.1224C4.62583 50.2503 4.30607 50.1224 4.17817 49.8666C4.05026 49.6108 4.17817 49.291 4.43398 49.1631C4.68978 49.0352 5.00954 49.1631 5.13745 49.4189Z" fill="#01FE7F"/>
<path d="M6.86419 48.5876C6.9921 48.8434 6.86419 49.1631 6.60839 49.291C6.35258 49.4189 6.03282 49.291 5.90491 49.0352C5.77701 48.7794 5.90491 48.4597 6.16072 48.3318C6.41653 48.2038 6.73629 48.3318 6.86419 48.5876Z" fill="#01FE7F"/>
<path d="M8.59088 47.7562C8.71878 48.012 8.59088 48.3318 8.33507 48.4597C8.07926 48.5876 7.7595 48.4597 7.6316 48.2038C7.50369 47.948 7.6316 47.6283 7.88741 47.5004C8.14321 47.3725 8.46297 47.5004 8.59088 47.7562Z" fill="#01FE7F"/>
<path d="M10.3176 46.9248C10.4455 47.1806 10.3176 47.5004 10.0618 47.6283C9.80601 47.7562 9.48625 47.6283 9.35834 47.3725C9.23044 47.1167 9.35834 46.7969 9.61415 46.669C9.86996 46.5411 10.1897 46.605 10.3176 46.9248Z" fill="#01FE7F"/>
<path d="M5.841 50.9538C5.9689 51.2096 5.841 51.5294 5.58519 51.6573C5.32938 51.7852 5.00962 51.6573 4.88172 51.4015C4.75382 51.1456 4.88172 50.8259 5.13753 50.698C5.39334 50.5061 5.7131 50.634 5.841 50.9538Z" fill="#01FE7F"/>
<path d="M7.56769 50.0585C7.69559 50.3143 7.56769 50.634 7.31188 50.7619C7.05607 50.8898 6.73631 50.7619 6.6084 50.5061C6.4805 50.2503 6.6084 49.9306 6.86421 49.8027C7.12002 49.6747 7.43978 49.8027 7.56769 50.0585Z" fill="#01FE7F"/>
<path d="M9.29431 49.2271C9.42221 49.4829 9.29431 49.8027 9.0385 49.9306C8.78269 50.0585 8.46293 49.9306 8.33503 49.6748C8.20712 49.4189 8.33503 49.0992 8.59084 48.9713C8.84664 48.8434 9.16641 48.9713 9.29431 49.2271Z" fill="#01FE7F"/>
<path d="M11.0211 48.3957C11.149 48.6515 11.0211 48.9713 10.7652 49.0992C10.5094 49.2271 10.1897 49.0992 10.0618 48.8434C9.93387 48.5876 10.0618 48.2678 10.3176 48.1399C10.5734 48.012 10.8932 48.1399 11.0211 48.3957Z" fill="#01FE7F"/>
<path d="M6.6084 52.4247C6.7363 52.6805 6.6084 53.0002 6.35259 53.1282C6.09678 53.2561 5.77702 53.1282 5.64912 52.8723C5.52121 52.6165 5.64912 52.2968 5.90492 52.1689C6.16073 52.041 6.48049 52.1689 6.6084 52.4247Z" fill="#01FE7F"/>
<path d="M8.33502 51.5933C8.46292 51.8491 8.33502 52.1689 8.07921 52.2968C7.8234 52.4247 7.50364 52.2968 7.37574 52.041C7.24783 51.7852 7.37574 51.4654 7.63155 51.3375C7.88736 51.2096 8.20712 51.3375 8.33502 51.5933Z" fill="#01FE7F"/>
<path d="M10.0618 50.7619C10.1897 51.0177 10.0618 51.3375 9.80596 51.4654C9.55015 51.5933 9.23039 51.4654 9.10248 51.2096C8.97458 50.9538 9.10248 50.634 9.35829 50.5061C9.6141 50.3782 9.93386 50.4422 10.0618 50.7619Z" fill="#01FE7F"/>
<path d="M11.7885 49.9306C11.9164 50.1864 11.7885 50.5061 11.5327 50.634C11.2769 50.7619 10.9571 50.634 10.8292 50.3782C10.7013 50.1224 10.8292 49.8027 11.085 49.6747C11.3408 49.4829 11.6606 49.6108 11.7885 49.9306Z" fill="#01FE7F"/>
<path d="M7.31183 53.8956C7.43973 54.1514 7.31183 54.4711 7.05602 54.5991C6.80021 54.727 6.48045 54.5991 6.35255 54.3432C6.22464 54.0874 6.35255 53.7677 6.60835 53.6398C6.86416 53.5119 7.18392 53.6398 7.31183 53.8956Z" fill="#01FE7F"/>
<path d="M9.03857 53.0642C9.16648 53.32 9.03857 53.6398 8.78276 53.7677C8.52696 53.8956 8.2072 53.7677 8.07929 53.5119C7.95139 53.2561 8.07929 52.9363 8.3351 52.8084C8.59091 52.6805 8.91067 52.8084 9.03857 53.0642Z" fill="#01FE7F"/>
<path d="M10.7653 52.2328C10.8932 52.4886 10.7653 52.8084 10.5095 52.9363C10.2537 53.0642 9.93394 52.9363 9.80604 52.6805C9.67813 52.4247 9.80604 52.1049 10.0618 51.977C10.3177 51.8491 10.6374 51.977 10.7653 52.2328Z" fill="#01FE7F"/>
<path d="M12.4919 51.4014C12.6198 51.6573 12.4919 51.977 12.2361 52.1049C11.9803 52.2328 11.6606 52.1049 11.5327 51.8491C11.4048 51.5933 11.5327 51.2735 11.7885 51.1456C12.0443 51.0177 12.364 51.1456 12.4919 51.4014Z" fill="#01FE7F"/>
<path d="M8.07928 55.4304C8.20719 55.6862 8.07928 56.006 7.82347 56.1339C7.56767 56.2618 7.24791 56.1339 7.12 55.8781C6.9921 55.6223 7.12 55.3025 7.37581 55.1746C7.63162 55.0467 7.95138 55.1746 8.07928 55.4304Z" fill="#01FE7F"/>
<path d="M9.80597 54.5991C9.93387 54.8549 9.80597 55.1746 9.55016 55.3025C9.29435 55.4304 8.97459 55.3025 8.84669 55.0467C8.71878 54.7909 8.84669 54.4711 9.10249 54.3432C9.3583 54.2153 9.67806 54.2793 9.80597 54.5991Z" fill="#01FE7F"/>
<path d="M11.5327 53.7677C11.6606 54.0235 11.5327 54.3433 11.2768 54.4712C11.021 54.5991 10.7013 54.4712 10.5734 54.2153C10.4455 53.9595 10.5734 53.6398 10.8292 53.5119C11.085 53.384 11.4047 53.4479 11.5327 53.7677Z" fill="#01FE7F"/>
<path d="M13.2593 52.8724C13.3872 53.1282 13.2593 53.4479 13.0035 53.5758C12.7477 53.7037 12.428 53.5758 12.3001 53.32C12.1722 53.0642 12.3001 52.7444 12.5559 52.6165C12.7477 52.4886 13.1314 52.6165 13.2593 52.8724Z" fill="#01FE7F"/>
<path d="M8.78271 56.9013C8.91062 57.1571 8.78271 57.4769 8.5269 57.6048C8.2711 57.7327 7.95134 57.6048 7.82343 57.349C7.69553 57.0932 7.82343 56.7734 8.07924 56.6455C8.33505 56.5176 8.65481 56.6455 8.78271 56.9013Z" fill="#01FE7F"/>
<path d="M10.5095 56.07C10.6374 56.3258 10.5095 56.6455 10.2537 56.7734C9.99784 56.9013 9.67808 56.7734 9.55018 56.5176C9.42227 56.2618 9.55018 55.942 9.80599 55.8141C10.0618 55.6862 10.3816 55.8141 10.5095 56.07Z" fill="#01FE7F"/>
<path d="M12.2361 55.2386C12.364 55.4944 12.2361 55.8141 11.9803 55.942C11.7245 56.0699 11.4048 55.942 11.2769 55.6862C11.149 55.4304 11.2769 55.1107 11.5327 54.9828C11.7885 54.8549 12.1082 54.9828 12.2361 55.2386Z" fill="#01FE7F"/>
<path d="M13.9628 54.4072C14.0907 54.663 13.9628 54.9828 13.707 55.1107C13.4512 55.2386 13.1315 55.1107 13.0035 54.8549C12.8756 54.5991 13.0035 54.2793 13.2594 54.1514C13.5152 54.0235 13.8349 54.1514 13.9628 54.4072Z" fill="#01FE7F"/>
<path d="M9.55017 58.4362C9.67807 58.692 9.55017 59.0117 9.29436 59.1396C9.03855 59.2676 8.71879 59.1396 8.59089 58.8838C8.46298 58.628 8.59089 58.3083 8.8467 58.1804C9.03855 58.0525 9.42226 58.1804 9.55017 58.4362Z" fill="#01FE7F"/>
<path d="M11.2769 57.6048C11.4048 57.8606 11.2769 58.1804 11.0211 58.3083C10.7653 58.4362 10.4455 58.3083 10.3176 58.0525C10.1897 57.7967 10.3176 57.4769 10.5734 57.349C10.7653 57.2211 11.149 57.285 11.2769 57.6048Z" fill="#01FE7F"/>
<path d="M13.0036 56.7734C13.1315 57.0292 13.0036 57.349 12.7478 57.4769C12.492 57.6048 12.1722 57.4769 12.0443 57.2211C11.9164 56.9653 12.0443 56.6455 12.3001 56.5176C12.492 56.3258 12.8757 56.4537 13.0036 56.7734Z" fill="#01FE7F"/>
<path d="M14.7303 55.8781C14.8582 56.1339 14.7303 56.4537 14.4745 56.5816C14.2187 56.7095 13.8989 56.5816 13.771 56.3258C13.6431 56.0699 13.771 55.7502 14.0268 55.6223C14.2187 55.4944 14.5384 55.6223 14.7303 55.8781Z" fill="#01FE7F"/>
<path d="M47.1539 47.948C47.026 48.2038 47.1539 48.5236 47.4097 48.6515C47.6656 48.7794 47.9853 48.6515 48.1132 48.3957C48.2411 48.1399 48.1132 47.8201 47.8574 47.6922C47.6656 47.5643 47.2818 47.6283 47.1539 47.948Z" fill="#01FE7F"/>
<path d="M45.4273 47.0527C45.2993 47.3085 45.4273 47.6283 45.6831 47.7562C45.9389 47.8841 46.2586 47.7562 46.3865 47.5004C46.5144 47.2446 46.3865 46.9248 46.1307 46.7969C45.9389 46.669 45.6191 46.7969 45.4273 47.0527Z" fill="#01FE7F"/>
<path d="M43.7006 46.2213C43.5727 46.4771 43.7006 46.7969 43.9564 46.9248C44.2122 47.0527 44.5319 46.9248 44.6598 46.669C44.7878 46.4132 44.6598 46.0934 44.404 45.9655C44.2122 45.8376 43.8924 45.9655 43.7006 46.2213Z" fill="#01FE7F"/>
<path d="M41.9739 45.39C41.846 45.6458 41.9739 45.9655 42.2297 46.0934C42.4855 46.2213 42.8053 46.0934 42.9332 45.8376C43.0611 45.5818 42.9332 45.2621 42.6774 45.1342C42.4855 45.0062 42.1657 45.1342 41.9739 45.39Z" fill="#01FE7F"/>
<path d="M46.4505 49.4189C46.3226 49.6747 46.4505 49.9945 46.7063 50.1224C46.9621 50.2503 47.2819 50.1224 47.4098 49.8666C47.5377 49.6108 47.4098 49.291 47.154 49.1631C46.8982 49.0352 46.5784 49.1631 46.4505 49.4189Z" fill="#01FE7F"/>
<path d="M44.7238 48.5876C44.5959 48.8434 44.7238 49.1631 44.9796 49.291C45.2354 49.4189 45.5551 49.291 45.683 49.0352C45.8109 48.7794 45.683 48.4597 45.4272 48.3318C45.1714 48.2038 44.8517 48.3318 44.7238 48.5876Z" fill="#01FE7F"/>
<path d="M42.9971 47.7562C42.8692 48.012 42.9971 48.3318 43.2529 48.4597C43.5087 48.5876 43.8285 48.4597 43.9564 48.2038C44.0843 47.948 43.9564 47.6283 43.7005 47.5004C43.4447 47.3725 43.125 47.5004 42.9971 47.7562Z" fill="#01FE7F"/>
<path d="M41.2704 46.9248C41.1425 47.1806 41.2704 47.5004 41.5262 47.6283C41.782 47.7562 42.1018 47.6283 42.2297 47.3725C42.3576 47.1167 42.2297 46.7969 41.9739 46.669C41.7181 46.5411 41.3983 46.605 41.2704 46.9248Z" fill="#01FE7F"/>
<path d="M45.747 50.9538C45.6191 51.2096 45.747 51.5294 46.0028 51.6573C46.2586 51.7852 46.5784 51.6573 46.7063 51.4015C46.8342 51.1456 46.7063 50.8259 46.4505 50.698C46.1947 50.5061 45.8749 50.634 45.747 50.9538Z" fill="#01FE7F"/>
<path d="M44.0203 50.0585C43.8924 50.3143 44.0203 50.634 44.2761 50.7619C44.5319 50.8898 44.8517 50.7619 44.9796 50.5061C45.1075 50.2503 44.9796 49.9306 44.7238 49.8027C44.468 49.6747 44.1482 49.8027 44.0203 50.0585Z" fill="#01FE7F"/>
<path d="M42.2936 49.2271C42.1657 49.4829 42.2936 49.8027 42.5495 49.9306C42.8053 50.0585 43.125 49.9306 43.2529 49.6748C43.3808 49.4189 43.2529 49.0992 42.9971 48.9713C42.7413 48.8434 42.4216 48.9713 42.2936 49.2271Z" fill="#01FE7F"/>
<path d="M40.5669 48.3957C40.439 48.6515 40.5669 48.9713 40.8227 49.0992C41.0785 49.2271 41.3983 49.0992 41.5262 48.8434C41.6541 48.5876 41.5262 48.2678 41.2704 48.1399C41.0146 48.012 40.6948 48.1399 40.5669 48.3957Z" fill="#01FE7F"/>
<path d="M44.9796 52.4247C44.8517 52.6805 44.9796 53.0002 45.2354 53.1282C45.4912 53.2561 45.8109 53.1282 45.9388 52.8723C46.0667 52.6165 45.9388 52.2968 45.683 52.1689C45.4272 52.041 45.1075 52.1689 44.9796 52.4247Z" fill="#01FE7F"/>
<path d="M43.2529 51.5933C43.125 51.8491 43.2529 52.1689 43.5087 52.2968C43.7645 52.4247 44.0843 52.2968 44.2122 52.041C44.3401 51.7852 44.2122 51.4654 43.9563 51.3375C43.7005 51.2096 43.3808 51.3375 43.2529 51.5933Z" fill="#01FE7F"/>
<path d="M41.5262 50.7619C41.3983 51.0177 41.5262 51.3375 41.782 51.4654C42.0378 51.5933 42.3576 51.4654 42.4855 51.2096C42.6134 50.9538 42.4855 50.634 42.2297 50.5061C41.9739 50.3782 41.6541 50.4422 41.5262 50.7619Z" fill="#01FE7F"/>
<path d="M39.7994 49.9306C39.6715 50.1864 39.7994 50.5061 40.0553 50.634C40.3111 50.7619 40.6308 50.634 40.7587 50.3782C40.8866 50.1224 40.7587 49.8027 40.5029 49.6747C40.2471 49.4829 39.9273 49.6108 39.7994 49.9306Z" fill="#01FE7F"/>
<path d="M44.2761 53.8956C44.1482 54.1514 44.2761 54.4711 44.5319 54.5991C44.7877 54.727 45.1074 54.5991 45.2353 54.3432C45.3633 54.0874 45.2353 53.7677 44.9795 53.6398C44.7237 53.5119 44.404 53.6398 44.2761 53.8956Z" fill="#01FE7F"/>
<path d="M42.5494 53.0642C42.4215 53.32 42.5494 53.6398 42.8052 53.7677C43.061 53.8956 43.3808 53.7677 43.5087 53.5119C43.6366 53.2561 43.5087 52.9363 43.2529 52.8084C42.9971 52.6805 42.6773 52.8084 42.5494 53.0642Z" fill="#01FE7F"/>
<path d="M40.8227 52.2328C40.6948 52.4886 40.8227 52.8084 41.0785 52.9363C41.3343 53.0642 41.6541 52.9363 41.782 52.6805C41.9099 52.4247 41.782 52.1049 41.5262 51.977C41.2704 51.8491 40.9506 51.977 40.8227 52.2328Z" fill="#01FE7F"/>
<path d="M39.096 51.4014C38.9681 51.6573 39.096 51.977 39.3518 52.1049C39.6076 52.2328 39.9274 52.1049 40.0553 51.8491C40.1832 51.5933 40.0553 51.2735 39.7995 51.1456C39.5437 51.0177 39.2239 51.1456 39.096 51.4014Z" fill="#01FE7F"/>
<path d="M43.5087 55.4304C43.3808 55.6862 43.5087 56.006 43.7645 56.1339C44.0203 56.2618 44.34 56.1339 44.468 55.8781C44.5959 55.6223 44.468 55.3025 44.2121 55.1746C43.9563 55.0467 43.6366 55.1746 43.5087 55.4304Z" fill="#01FE7F"/>
<path d="M41.782 54.5991C41.6541 54.8549 41.7821 55.1746 42.0379 55.3025C42.2937 55.4304 42.6134 55.3025 42.7413 55.0467C42.8692 54.7909 42.7413 54.4711 42.4855 54.3432C42.2297 54.2153 41.91 54.2793 41.782 54.5991Z" fill="#01FE7F"/>
<path d="M40.0553 53.7677C39.9274 54.0235 40.0553 54.3433 40.3111 54.4712C40.5669 54.5991 40.8867 54.4712 41.0146 54.2153C41.1425 53.9595 41.0146 53.6398 40.7588 53.5119C40.5669 53.384 40.1832 53.4479 40.0553 53.7677Z" fill="#01FE7F"/>
<path d="M38.3286 52.8724C38.2007 53.1282 38.3286 53.4479 38.5844 53.5758C38.8402 53.7037 39.1599 53.5758 39.2878 53.32C39.4157 53.0642 39.2878 52.7444 39.032 52.6165C38.8402 52.4886 38.4565 52.6165 38.3286 52.8724Z" fill="#01FE7F"/>
<path d="M42.8052 56.9013C42.6773 57.1571 42.8052 57.4769 43.0611 57.6048C43.3169 57.7327 43.6366 57.6048 43.7645 57.349C43.8924 57.0932 43.7645 56.7734 43.5087 56.6455C43.2529 56.5176 42.9331 56.6455 42.8052 56.9013Z" fill="#01FE7F"/>
<path d="M41.0785 56.07C40.9506 56.3258 41.0785 56.6455 41.3343 56.7734C41.5901 56.9013 41.9099 56.7734 42.0378 56.5176C42.1657 56.2618 42.0378 55.942 41.782 55.8141C41.5262 55.6862 41.2064 55.8141 41.0785 56.07Z" fill="#01FE7F"/>
<path d="M39.3518 55.2386C39.2238 55.4944 39.3518 55.8141 39.6076 55.942C39.8634 56.0699 40.1831 55.942 40.311 55.6862C40.4389 55.4304 40.311 55.1107 40.0552 54.9828C39.7994 54.8549 39.4797 54.9828 39.3518 55.2386Z" fill="#01FE7F"/>
<path d="M37.6251 54.4072C37.4972 54.663 37.6251 54.9828 37.8809 55.1107C38.1367 55.2386 38.4565 55.1107 38.5844 54.8549C38.7123 54.5991 38.5844 54.2793 38.3286 54.1514C38.0728 54.0235 37.753 54.1514 37.6251 54.4072Z" fill="#01FE7F"/>
<path d="M42.0378 58.4362C41.9099 58.692 42.0378 59.0117 42.2936 59.1396C42.5494 59.2676 42.8692 59.1396 42.9971 58.8838C43.125 58.628 42.9971 58.3083 42.7413 58.1804C42.5494 58.0525 42.1657 58.1804 42.0378 58.4362Z" fill="#01FE7F"/>
<path d="M40.3111 57.6048C40.1832 57.8606 40.3111 58.1804 40.5669 58.3083C40.8227 58.4362 41.1425 58.3083 41.2704 58.0525C41.3983 57.7967 41.2704 57.4769 41.0146 57.349C40.8227 57.2211 40.439 57.285 40.3111 57.6048Z" fill="#01FE7F"/>
<path d="M38.5844 56.7734C38.4565 57.0292 38.5844 57.349 38.8402 57.4769C39.096 57.6048 39.4158 57.4769 39.5437 57.2211C39.6716 56.9653 39.5437 56.6455 39.2879 56.5176C39.096 56.3258 38.7763 56.4537 38.5844 56.7734Z" fill="#01FE7F"/>
<path d="M36.8577 55.8781C36.7298 56.1339 36.8577 56.4537 37.1135 56.5816C37.3693 56.7095 37.6891 56.5816 37.817 56.3258C37.9449 56.0699 37.817 55.7502 37.5612 55.6223C37.3693 55.4944 37.0496 55.6223 36.8577 55.8781Z" fill="#01FE7F"/>
<path d="M51.3109 45.0062C50.7992 43.5993 49.776 42.4482 48.433 41.7447L47.154 41.1691L48.3691 34.71C48.433 34.5181 48.3691 34.3902 48.2412 34.1984C48.1132 34.0704 47.9853 33.9425 47.8574 33.9425L46.0028 33.6228L46.5784 30.2973L48.6249 30.681C48.6888 30.681 48.6888 30.681 48.7528 30.681C49.0725 30.681 49.3283 30.4891 49.3923 30.1694L50.9271 22.0475C50.9271 21.8556 50.9271 21.7277 50.7992 21.5358C50.7353 21.4079 50.5434 21.28 50.4155 21.28L48.1772 20.8324C48.3051 18.8499 48.2412 16.8674 47.8574 14.8848V14.8209C46.0668 7.65826 40.2471 2.03048 32.8287 0.623532L31.6136 0.431676C27.7125 -0.143892 23.7475 -0.143892 19.8464 0.431676H19.7825L18.5035 0.687484C11.2769 2.03048 5.52119 7.5943 3.85844 14.8209V14.9488C3.47473 16.9313 3.34682 18.9778 3.53868 21.0242L1.30036 21.4719C1.1085 21.4719 0.980598 21.5998 0.916646 21.7277C0.788742 21.8556 0.788742 22.0475 0.788742 22.2393L2.32359 30.3612C2.38754 30.681 2.64335 30.8728 2.96311 30.8728C3.02706 30.8728 3.02706 30.8728 3.09102 30.8728L5.20143 30.4891L5.84095 33.8146L3.98634 34.1344C3.79449 34.1344 3.66658 34.2623 3.60263 34.3902C3.53868 34.5181 3.47473 34.71 3.47473 34.9018L4.68982 41.2331L3.21892 41.9365C1.87593 42.5761 0.788742 43.7272 0.341077 45.1981C-0.170539 46.6051 -0.106587 48.2038 0.532934 49.5468L5.84095 60.7384C6.80023 62.7849 8.8467 64 10.9571 64C11.7885 64 12.6199 63.8082 13.3873 63.4244L14.0908 63.1047L16.1372 62.1454C18.1197 61.1861 19.5906 59.5234 20.3581 57.4769C20.7418 56.3897 20.8697 55.3025 20.8057 54.2153C22.2766 55.0467 24.0033 55.4944 25.794 55.4944C27.5846 55.4944 29.3113 55.0467 30.7822 54.2153C30.7183 55.3025 30.8462 56.3897 31.2299 57.4769C31.9334 59.5234 33.4682 61.1861 35.4507 62.1454L37.4972 63.1047L38.2007 63.4244C38.9681 63.8082 39.7995 64 40.6309 64C42.7413 64 44.7877 62.7849 45.747 60.7384L51.055 49.5468C51.7585 48.012 51.8225 46.4771 51.3109 45.0062ZM46.9621 35.1576L45.9389 40.6575L45.6191 40.5296C45.3633 40.4017 45.1075 40.2738 44.7877 40.2098L45.5552 35.8611L45.747 34.9658L46.9621 35.1576ZM48.2412 22.3033L49.4562 22.5591L48.1772 29.4019L46.9621 29.1461L48.2412 22.3033ZM3.47473 29.4019L2.19569 22.5591L3.41078 22.3033L4.68982 29.1461L3.47473 29.4019ZM5.07353 22.623C4.62586 20.1289 4.68982 17.6348 5.13748 15.1406V15.0767C6.67233 8.36173 11.9803 3.18161 18.7593 1.96653L20.0383 1.71072C21.9569 1.39096 23.8754 1.26305 25.794 1.26305C27.7125 1.26305 29.6311 1.39096 31.4857 1.71072L32.6369 1.90257C39.4797 3.18161 44.9156 8.42568 46.4505 15.2046V15.2685C46.8982 17.6348 46.9621 20.001 46.5784 22.3672L44.3401 35.6693L43.5727 39.8261C43.1889 39.7622 42.8052 39.6982 42.4215 39.6982L45.4273 22.1754C45.5552 21.1521 45.6831 20.1929 45.6831 19.1696C45.6831 17.9545 45.5552 16.6755 45.3633 15.4604C43.8285 9.19311 38.7762 4.33275 32.381 3.11766L31.2939 2.92581C27.6486 2.41419 23.8754 2.41419 20.2302 2.92581L19.0151 3.18161C15.9454 3.75718 13.1315 5.22808 10.8292 7.40245C8.59089 9.57682 6.99209 12.3268 6.28862 15.3965C5.84095 17.6987 5.84095 20.065 6.22466 22.3672L9.48622 39.6982C9.03855 39.6982 8.65484 39.6982 8.27113 39.7622L7.18394 34.0705L5.07353 22.623ZM35.8345 35.2216C35.0031 34.1344 34.2996 32.9833 33.5322 31.6403L32.509 29.9136C31.3578 27.8671 29.3113 26.5241 27.137 26.3962C26.9451 26.3962 24.6429 26.3962 24.451 26.3962C22.2127 26.5241 20.2302 27.8671 19.0151 29.9136L18.0558 31.6403C17.2884 32.9833 16.5849 34.1344 15.7535 35.2216C14.4745 36.9483 13.5791 38.7389 13.0675 40.5296C12.3641 40.2098 11.5966 39.954 10.8292 39.8261L7.5037 22.1754C7.3758 21.28 7.2479 20.3847 7.2479 19.4894C8.59089 13.6058 13.1954 9.12915 19.079 8.04197L20.2941 7.78616C23.9394 7.27454 27.5846 7.27454 31.166 7.78616L32.2531 7.97802C38.2007 9.0652 42.9331 13.6697 44.2761 19.6173C44.2761 20.3847 44.2122 21.2161 44.0843 21.9835L41.0146 39.7622C40.439 39.8261 39.8634 39.954 39.3518 40.1459C39.0321 40.2738 38.7763 40.4017 38.4565 40.5296C38.0088 38.7389 37.1135 36.8843 35.8345 35.2216ZM37.3693 41.2331C36.7298 41.6807 36.1542 42.1924 35.7066 42.8319C34.6833 38.3552 30.6543 34.9658 25.794 34.9658C20.9976 34.9658 16.9686 38.2913 15.8814 42.8319C15.3698 42.1924 14.8582 41.6807 14.2187 41.2331C14.6024 39.4424 15.4977 37.6518 16.7768 35.989C17.6081 34.8379 18.3756 33.6867 19.143 32.2798L20.1023 30.5531C21.0615 28.8903 22.7243 27.8032 24.5149 27.6752C24.7068 27.6752 26.8172 27.6752 27.0091 27.6752C28.7997 27.8032 30.4625 28.8903 31.4218 30.5531L32.445 32.2798C33.2124 33.6228 33.9798 34.8379 34.8112 35.989C36.0903 37.6518 36.9216 39.4424 37.3693 41.2331ZM7.88742 14.4372C8.65484 12.0709 9.93388 9.96053 11.7245 8.29778C13.771 6.31526 16.393 4.97227 19.2069 4.46065L20.422 4.20485C22.2127 3.94904 24.0033 3.82113 25.794 3.82113C27.5846 3.82113 29.3753 3.94904 31.102 4.20485L32.1892 4.3967C37.6251 5.41994 42.0378 9.32101 43.7006 14.5651C41.2704 10.5361 37.3054 7.59431 32.509 6.69898L31.4218 6.50712C27.6486 5.93155 23.8754 5.93155 20.1023 6.50712L18.8232 6.76293C14.2187 7.5943 10.2536 10.4721 7.88742 14.4372ZM6.03281 34.9018L6.09676 35.1576L6.99209 40.0819C6.60838 40.2098 6.22466 40.3377 5.9049 40.5296L5.84095 40.5936L4.81772 35.2216L6.03281 34.9018ZM14.4105 61.378L13.5791 61.7617L12.8757 62.0814C12.3641 62.3372 11.8524 62.4652 11.2769 62.5291C9.55017 62.657 7.75951 61.6977 6.99209 60.035L1.62012 48.8434C1.1085 47.7562 1.04455 46.605 1.42826 45.4539C1.62012 44.8783 1.93988 44.3667 2.38754 43.9191C2.77125 43.5354 3.21892 43.1516 3.73054 42.9598L4.88167 42.3842L5.20143 42.1924C5.45724 42.0645 5.777 41.9365 6.03281 41.8726C6.35257 41.8086 6.73628 41.7447 7.05604 41.7447C7.11999 41.7447 7.18395 41.7447 7.2479 41.7447C7.69556 41.7447 8.20718 41.8726 8.59089 42.0005C9.16646 42.2563 9.74203 42.5761 10.1897 43.0877C10.5095 43.4074 10.7653 43.7912 11.0211 44.2388L11.7885 45.8376L13.2594 48.8434L14.2187 50.8898L16.393 55.4304C17.5442 57.6688 16.5849 60.2908 14.4105 61.378ZM19.143 56.8374C18.8872 57.6048 18.4395 58.3722 17.9279 58.9478C18.3116 57.6048 18.1837 56.1979 17.6081 54.9188L16.0733 51.6573L15.2419 49.9306L14.3466 48.012L13.0036 45.1981L12.7478 44.6225L12.3001 43.7272C12.1083 43.2795 11.7885 42.8319 11.4687 42.4482C11.0211 41.8726 10.4455 41.4889 9.80598 41.1691C9.67807 41.1052 9.48622 41.0412 9.35831 40.9773H9.42227C9.55017 40.9773 9.61412 40.9773 9.74203 40.9773C10.1897 40.9773 10.6374 41.0412 11.085 41.1691C11.6606 41.297 12.2362 41.5528 12.8117 41.8086C13.2594 42.0005 13.6431 42.3203 14.0268 42.64C14.6663 43.2156 15.2419 43.9191 15.6896 44.7504C15.7535 44.8144 15.7535 44.8144 15.7535 44.8783L17.2884 48.012L18.0558 49.6108L18.7593 51.1456L18.8872 51.4654C19.079 51.8491 19.2069 52.2328 19.3348 52.6165C19.3348 52.7444 19.3988 52.8084 19.3988 52.9363C19.6546 54.2793 19.5906 55.5583 19.143 56.8374ZM31.5497 50.9538C31.4218 51.2096 31.3578 51.4015 31.2939 51.6573C31.2299 51.8491 31.166 52.041 31.102 52.2968C30.5904 52.6805 30.0148 53.0003 29.3753 53.2561C28.2881 53.7677 27.073 54.0235 25.794 54.0235C24.451 54.0235 23.2359 53.7037 22.0848 53.1921C21.5092 52.9363 20.9976 52.6165 20.486 52.2328C20.422 51.977 20.3581 51.7852 20.2302 51.5294C20.1662 51.3375 20.0383 51.1456 19.9744 50.8898L19.5906 50.0585L18.8872 48.5236L16.9047 44.4307C17.2244 39.8261 21.0615 36.1809 25.73 36.1809C30.3985 36.1809 34.2996 39.8261 34.5554 44.4307L32.509 48.6515L31.8055 50.1224L31.5497 50.9538ZM33.6601 58.9478C33.1485 58.3083 32.7008 57.6048 32.445 56.8374V56.7734C32.381 56.5176 32.2531 56.2618 32.2531 55.942C32.2531 55.8781 32.2531 55.8141 32.1892 55.7502C32.1252 55.4944 32.1252 55.1746 32.0613 54.9188C32.0613 54.9188 32.0613 54.9188 32.0613 54.8549C32.0613 54.5351 32.0613 54.2153 32.0613 53.9595C32.0613 53.8956 32.0613 53.8956 32.0613 53.8316C32.0613 53.5758 32.1252 53.32 32.1892 53.0642C32.1892 53.0003 32.1892 53.0003 32.1892 52.9363C32.3171 52.4247 32.445 51.9131 32.7008 51.4654L34.1078 48.5236L34.2996 48.0759L35.8345 44.8144C35.8345 44.7504 35.8984 44.6865 35.8984 44.6865C35.9624 44.6225 35.9624 44.4946 36.0263 44.4307C36.0903 44.3667 36.1542 44.2388 36.1542 44.1749C36.2182 44.047 36.2821 43.983 36.3461 43.8551C36.41 43.7912 36.474 43.6633 36.5379 43.5993C36.6019 43.5354 36.6658 43.4074 36.7298 43.3435C36.7937 43.2156 36.9216 43.1516 36.9856 43.0877C37.0495 43.0237 37.0495 43.0237 37.1135 42.9598C37.2414 42.8319 37.3693 42.704 37.4972 42.5761C37.6891 42.4482 37.817 42.3203 38.0088 42.1924C38.0728 42.1284 38.0728 42.1284 38.1367 42.1284C38.4565 41.9366 38.7763 41.7447 39.096 41.5528C39.2239 41.4889 39.4158 41.4249 39.5437 41.361C39.6076 41.361 39.6076 41.361 39.6716 41.297C39.7995 41.2331 39.9274 41.2331 40.0553 41.1691C40.1192 41.1691 40.1192 41.1691 40.1832 41.1052C40.7588 40.9133 41.3983 40.8494 42.0378 40.8494H42.1018C41.9739 40.9133 41.8459 40.9773 41.782 40.9773C41.718 40.9773 41.718 41.0412 41.6541 41.0412C41.3343 41.1691 41.0785 41.361 40.8227 41.5528C40.6948 41.6168 40.5669 41.7447 40.503 41.8726C40.3751 42.0005 40.2471 42.1284 40.1192 42.2563C39.9913 42.3842 39.9274 42.5121 39.7995 42.64C39.6716 42.7679 39.6076 42.8958 39.4797 43.0877C39.4158 43.1516 39.4158 43.2795 39.3518 43.3435C39.2879 43.4074 39.2879 43.4714 39.2239 43.5993L38.7763 44.4946L38.5844 44.8783L36.7298 48.7794L36.1542 49.9945L35.7705 50.8259L35.3868 51.6573L34.4915 53.5758L33.9798 54.9188C33.6601 55.5583 33.4682 56.1979 33.4682 56.9013C33.4043 57.6048 33.4682 58.2443 33.6601 58.9478ZM49.9039 48.8434L44.5959 60.035C44.5319 60.2268 44.404 60.4187 44.2761 60.5466C43.3808 61.8896 41.8459 62.657 40.3111 62.5291C39.7995 62.4652 39.2239 62.3372 38.7123 62.0814L38.0728 61.7617L37.3054 61.4419L37.1775 61.378C36.9216 61.2501 36.6658 61.1222 36.41 60.9303C35.0031 59.9071 34.3636 58.1164 34.7473 56.3897C34.8112 56.07 34.9391 55.8141 35.067 55.4944L37.1135 51.1456L37.753 49.8666L38.0728 49.1631L39.16 46.9248L40.439 44.3028V44.2388C40.503 44.1109 40.6309 43.9191 40.6948 43.7912C40.7588 43.7272 40.7588 43.7272 40.8227 43.6633C40.8867 43.5354 41.0146 43.4074 41.0785 43.3435C41.1425 43.2795 41.1425 43.2795 41.2064 43.2156C41.3343 43.0877 41.3983 43.0237 41.5262 42.8958C41.5901 42.8319 41.5901 42.8319 41.6541 42.7679C41.6541 42.7679 41.6541 42.7679 41.718 42.7679L41.782 42.704C41.9099 42.5761 42.1018 42.4482 42.2936 42.3842C42.3576 42.3203 42.4215 42.3203 42.4855 42.2563C42.6134 42.1924 42.8052 42.1284 42.9331 42.0645C42.9971 42.0645 43.061 42.0005 43.061 42.0005H43.125C43.5087 41.8726 43.9564 41.8086 44.3401 41.8086C44.404 41.8086 44.404 41.8086 44.468 41.8086C44.5319 41.8086 44.5319 41.8086 44.5959 41.8086C44.7877 41.8086 44.9156 41.8086 45.1075 41.8726C45.1715 41.8726 45.1715 41.8726 45.2354 41.8726C45.3633 41.8726 45.4912 41.9365 45.5552 41.9365H45.6191C45.6191 41.9365 45.6191 41.9365 45.6831 41.9365C45.747 41.9365 45.811 42.0005 45.8749 42.0005C46.0028 42.0645 46.1307 42.1284 46.2586 42.1284L47.09 42.5121C47.09 42.5121 47.09 42.5121 47.154 42.5121L47.7935 42.8319C48.3051 43.0877 48.7528 43.4074 49.1365 43.7912C49.2004 43.8551 49.2644 43.9191 49.3283 43.983C49.5841 44.2388 49.776 44.5586 49.9039 44.9423C49.9679 45.0702 50.0318 45.1981 50.0958 45.326C50.2237 45.7097 50.2876 46.0934 50.3516 46.4771C50.4155 47.3725 50.2876 48.1399 49.9039 48.8434Z" fill="#01FE7F"/>
<path d="M27.7765 39.1866C27.3928 38.4192 26.6893 37.9076 25.794 37.9076C24.8987 37.9076 24.1952 38.4192 23.8115 39.1866L21.1255 45.326C20.6139 46.5411 20.486 47.8201 20.7418 49.0352C20.8697 49.5468 20.9976 49.9945 21.1895 50.4422C21.4453 50.9538 21.765 51.4015 22.1487 51.8491C22.2766 51.977 22.3406 52.041 22.4685 52.1689C23.0441 52.7444 23.6836 53.1282 24.3871 53.32C24.8987 53.4479 25.3463 53.5758 25.858 53.5758C26.3056 53.5758 26.8172 53.5119 27.2649 53.384C27.9684 53.1282 28.6719 52.7444 29.2474 52.1689C29.3114 52.1049 29.4393 51.977 29.5032 51.9131C29.8869 51.4654 30.2067 51.0177 30.4625 50.5061C30.6544 50.0585 30.8462 49.6108 30.9741 49.0992C31.2299 47.8841 31.102 46.5411 30.5904 45.326L27.7765 39.1866ZM29.5032 49.4189C29.3753 49.9306 29.1195 50.3782 28.7998 50.8259C28.6719 51.0177 28.48 51.2096 28.2881 51.4015C27.9044 51.7852 27.4568 52.041 26.9451 52.2328C26.1777 52.4886 25.3463 52.4886 24.5789 52.2328C24.1313 52.041 23.6836 51.7852 23.2999 51.4015C23.108 51.2096 22.9162 51.0177 22.7883 50.7619C22.4685 50.3143 22.2127 49.8666 22.0848 49.355C21.7011 48.2678 21.765 46.9888 22.2766 45.9016L24.9626 39.6982C25.0905 39.3785 25.4103 39.1866 25.794 39.1866C26.1777 39.1866 26.4335 39.3785 26.6254 39.6982L29.3114 45.9016C29.823 46.9888 29.8869 48.2678 29.5032 49.4189Z" fill="#01FE7F"/>
</svg>
